<?xml version="1.0" encoding="UTF-8" standalone="no"?>
<svg
   xmlns:osb="http://www.openswatchbook.org/uri/2009/osb"
   xmlns:dc="http://purl.org/dc/elements/1.1/"
   xmlns:cc="http://creativecommons.org/ns#"
   xmlns:rdf="http://www.w3.org/1999/02/22-rdf-syntax-ns#"
   xmlns:svg="http://www.w3.org/2000/svg"
   xmlns="http://www.w3.org/2000/svg"
   xmlns:sodipodi="http://sodipodi.sourceforge.net/DTD/sodipodi-0.dtd"
   xmlns:inkscape="http://www.inkscape.org/namespaces/inkscape"
   width="128"
   height="128"
   x="0"
   y="0"
   version="1.1"
   xml:space="preserve"
   id="svg34"
   sodipodi:docname="birdtray.svg"
   inkscape:version="0.92.4 5da689c313, 2019-01-14">
   <metadata
   id="metadata40"><rdf:RDF><cc:Work
       rdf:about=""><dc:format>image/svg+xml</dc:format><dc:type
         rdf:resource="http://purl.org/dc/dcmitype/StillImage" /><dc:title></dc:title></cc:Work></rdf:RDF></metadata><defs
   id="defs38"><linearGradient
     id="linearGradient2342"
     osb:paint="solid"><stop
       style="stop-color:#afafe9;stop-opacity:1;"
       offset="0"
       id="stop2340" /></linearGradient><linearGradient
     id="linearGradient2326"
     osb:paint="solid"><stop
       style="stop-color:#afafe9;stop-opacity:1;"
       offset="0"
       id="stop2324" /></linearGradient><linearGradient
     id="linearGradient941"
     osb:paint="solid"><stop
       style="stop-color:#000000;stop-opacity:1;"
       offset="0"
       id="stop939" /></linearGradient></defs><sodipodi:namedview
   pagecolor="#ffffff"
   bordercolor="#666666"
   borderopacity="1"
   objecttolerance="10"
   gridtolerance="10"
   guidetolerance="10"
   inkscape:pageopacity="0"
   inkscape:pageshadow="2"
   inkscape:window-width="1920"
   inkscape:window-height="989"
   id="namedview36"
   showgrid="false"
   inkscape:zoom="5.2149125"
   inkscape:cx="74.484028"
   inkscape:cy="68.933842"
   inkscape:window-x="0"
   inkscape:window-y="0"
   inkscape:window-maximized="1"
   inkscape:current-layer="svg34"
   inkscape:pagecheckerboard="false"
   borderlayer="false" />
 <path
   style="opacity:0.2;stroke-width:2.26511979"
   d="M 50.705395,2.6154593 C 40.777763,2.8804262 34.902647,12.288072 30.726332,20.413462 29.95392,20.823315 29.177414,21.216969 28.408124,21.643351 20.525649,26.942856 14.069878,34.278539 9.0838223,42.308145 4.6979141,50.049765 2.0376548,58.660926 1.0497256,67.485482 0.46263076,76.432365 1.4853675,85.549019 4.854419,93.919248 c 6.3777,14.377002 22.166957,31.143302 36.794924,30.964032 -3.169157,-1.83232 -11.10266,-9.01507 -13.586296,-22.64236 2.63668,5.16404 14.543859,12.00988 18.116534,13.58188 -1.774882,-1.65744 -8.589096,-11.59474 -9.056054,-17.430824 L 14.361729,91.393119 c -2.007545,-6.351556 -3.205852,-12.922735 -3.937416,-19.638407 -0.09342,-1.500982 -0.279772,-3.125344 0.261019,-2.725235 2.022968,3.206231 4.80989,4.218447 8.321663,6.038855 -3.330426,-5.238135 -4.847665,-11.244056 -4.30019,-17.470628 0.54934,-6.247795 4.074219,-12.305356 7.945615,-16.793741 0.459308,-0.525825 0.973253,-1.02283 1.451092,-1.539572 0.207009,1.607521 0.472255,3.214363 0.659183,4.769137 -0.05558,1.203033 0.683405,3.731651 0.106168,3.986081 -1.164463,3.517685 -2.27569,8.055024 0.508768,11.126515 0.881945,-3.975811 5.220845,-5.892884 8.640192,-7.565145 3.865326,-1.678129 6.994028,-5.3502 10.821257,-7.113893 5.043259,-2.893037 9.912664,1.185648 16.39115,1.185648 6.193792,0 12.739562,-2.265301 18.868623,-5.02131 1.426442,1.4756 3.976655,3.872005 5.092096,5.622983 h -0.01336 c 3.194721,5.109283 5.408662,11.048651 6.136176,16.877797 0.907837,7.624495 0.146077,15.218671 -4.362126,20.992168 -5.36e-4,9e-5 -0.0354,0.0046 -0.0354,0.0046 1.04e-4,0 0.03051,-6.7e-5 0.03096,0 0.09292,0.01134 8.17976,0.588682 13.573031,-4.53024 -3.847949,29.752438 -22.091258,45.655588 -31.698412,49.810528 12.391993,0.83397 21.8393,-8.28853 22.42557,-8.86581 -1.38717,1.74649 -5.543324,6.89373 -8.843699,8.86581 8.356958,-2.34004 13.953317,-3.19079 19.226991,-7.03867 -0.002,0 4.28457,-2.3331 8.75521,-7.43244 0.59474,-0.6784 1.61743,-1.61643 2.22972,-2.389 0.38061,-0.48027 0.73402,-0.97294 1.10602,-1.4555 0.0655,-0.0792 0.14046,-0.15834 0.20349,-0.2389 9.40953,-11.510855 13.98799,-25.821067 13.64825,-38.79019 0.0662,-15.721612 -6.3138,-29.370684 -17.03252,-40.652838 C 102.78917,23.252558 93.986366,17.81038 86.058074,15.10901 75.786009,12.159308 63.11128,10.902955 54.045564,12.618264 c -0.858519,0.287037 0.130494,-4.7192362 1.190071,-5.4725653 -2.168938,0.2030454 -4.486737,4.3171653 -6.401617,6.3042883 -0.216093,0.04636 -0.405421,0.09968 -0.606097,0.150426 1.188328,-2.40808 0.614173,-4.0293934 2.477474,-6.4547052 -5.432043,1.0141373 -6.498628,4.5613432 -8.383597,8.1093072 -0.715017,0.241431 -1.402929,0.538214 -2.105853,0.805179 1.784497,-5.913206 5.031184,-8.9302151 10.48945,-13.4447257 z"
   id="path2"
   inkscape:connector-curvature="0" />
 <path
   style="fill:none;stroke-width:1.01473713"
   d="M 41.136371,42.033438 A 20.727065,20.727065 0 1 1 81.881763,34.400755 20.727065,20.727065 0 1 1 41.136371,42.033438 Z"
   id="path4"
   inkscape:connector-curvature="0" />
 <path
   style="fill:#304776;stroke-width:2.26511979"
   d="m 20.938259,104.13011 c 5.501864,7.91311 12.603978,17.23669 20.711912,18.48684 -3.169154,-1.83232 -11.101462,-9.01452 -13.585097,-22.641817 2.636679,5.164047 14.540788,12.013127 18.113463,13.585097 -1.774879,-1.65742 -8.589771,-11.59813 -9.056728,-17.434213 L 14.279273,89.103649 c 0.142318,0.216546 0.647973,6.571906 6.658986,15.026461 z"
   id="path6"
   inkscape:connector-curvature="0" />
 <path
   style="opacity:0.2;stroke-width:2.26511979"
   d="M 102.27472,50.134258 61.089822,35.691185 16.952887,38.632245 5.6882353,52.689887 c 2.0043891,12.99472 0.7590323,27.061602 7.7393157,38.414655 L 91.462194,115.82237 102.2088,85.825771 Z"
   id="path8"
   inkscape:connector-curvature="0" />
 <path
   style="fill:#ebebeb;stroke-width:2.26511979"
   d="M 102.27472,47.872124 61.089822,33.429051 16.952887,36.37011 5.6882353,50.427752 C 7.6926244,63.422473 6.4472676,77.48936 13.427551,88.842412 L 91.462194,113.56023 102.2088,83.563641 Z"
   id="path10"
   inkscape:connector-curvature="0" />
 <path
   style="fill:#3f7da7;fill-rule:evenodd;stroke-width:2.26511979"
   d="m 18.00943,35.525682 7.435828,1.061991 2.041456,-9.951321 -4.082913,1.990264 z"
   id="path12"
   inkscape:connector-curvature="0" />
 <path
   style="opacity:0.2;stroke-width:2.26511979"
   d="m 98.924747,58.057722 -6.110346,-20.072417 -74.737409,-0.750101 -0.423744,0.522142 -0.700361,0.877886 29.24439,40.995052 z"
   id="path14"
   inkscape:connector-curvature="0" />
 <path
   style="fill:#f7f7f7;stroke-width:2.26511979"
   d="M 98.924747,55.792603 92.814401,35.720185 18.076992,34.970083 17.653248,35.492225 16.952887,36.37011 46.197277,77.365165 Z"
   id="path16"
   inkscape:connector-curvature="0" />
 <path
   style="fill:#2f67a4;stroke-width:2.26511979"
   d="m 60.928946,10.170866 c -0.0078,0.0018 -9.396802,0.04523 -13.495236,1.36128 -6.829255,1.575991 -12.956272,4.481208 -19.026975,7.84592 C 20.524259,24.677571 14.068808,32.01516 9.0827515,40.044767 4.6968434,47.78639 2.0391302,56.397692 1.0512011,65.222249 0.46410627,74.169125 1.4875453,83.285597 4.8565968,91.655827 11.234298,106.03283 27.022206,122.79624 41.650171,122.61695 c -1.85807,-0.2865 -3.272939,-2.1681 -5.018207,-3.18843 C 30.761516,115.99644 25.179279,110.2298 20.938259,104.13011 14.927244,95.675555 14.422681,89.323094 14.280366,89.106526 l 0.08043,0.02491 c -2.008317,-6.352794 -3.20361,-12.922591 -3.935329,-19.639714 -0.09344,-1.50096 -0.28091,-3.128844 0.259882,-2.728745 2.022967,3.206232 4.811224,4.22155 8.322994,6.041958 C 15.677916,67.5668 14.15892,61.560987 14.706395,55.334414 15.255734,49.086619 18.780836,43.02956 22.652232,38.541174 32.794847,26.929699 47.594378,17.536086 60.928942,10.170866 Z"
   id="path18"
   inkscape:connector-curvature="0" />
 <path
   style="opacity:0.1;fill:#ffffff;stroke-width:2.26511979"
   d="m 60.929403,10.172504 c -0.0078,0.0018 -9.39938,0.04215 -13.497812,1.358187 -6.829256,1.575993 -12.952762,4.483576 -19.023467,7.848288 C 20.525649,24.678485 14.069878,32.014165 9.0838223,40.043772 4.6979141,47.785392 2.0376548,56.396554 1.0497256,65.22111 0.93246036,67.00813 0.89990607,68.803078 0.91700318,70.596351 0.94068763,69.558723 0.98183952,68.520731 1.0497256,67.486229 2.0376548,58.661674 4.6979141,50.050511 9.0838223,42.308893 14.069878,34.279282 20.525649,26.943604 28.408124,21.644099 c 6.070705,-3.364712 12.194211,-6.272295 19.023467,-7.848286 2.417708,-0.776348 6.131755,-1.064442 9.219743,-1.20777 1.435351,-0.82428 2.868238,-1.63683 4.278069,-2.415539 z"
   id="path20"
   inkscape:connector-curvature="0" />
 <path
   style="fill:#4a96e1;stroke-width:2.26511979"
   d="M 50.706867,0.35110275 C 39.976163,0.63750458 33.949993,11.626436 29.721144,20.107767 c -1.523221,2.695787 -3.10209,5.89469 -4.432585,8.440948 -2.546461,4.012599 -1.051804,8.831635 -0.523996,13.221628 -0.05558,1.203032 0.681379,3.728805 0.104152,3.983235 -1.164463,3.517686 -2.274092,8.056846 0.510365,11.128337 0.881943,-3.97581 5.220941,-5.8915 8.640288,-7.56376 3.865325,-1.67813 6.994093,-5.353021 10.821321,-7.116714 5.043258,-2.893037 9.912985,1.186921 16.39147,1.186921 6.193794,0 12.737011,-2.264436 18.866072,-5.020444 1.426441,1.4756 3.977702,3.872327 5.093143,5.623306 h -0.01587 c 3.19472,5.109284 5.409711,11.048765 6.137225,16.877913 0.907837,7.624481 0.147163,15.215169 -4.361043,20.988689 -5.35e-4,9e-5 -0.03578,0.0069 -0.03578,0.0069 1.06e-4,0 0.03124,-9.2e-5 0.03169,0 0.09292,0.01134 8.178022,0.58669 13.571284,-4.532209 -3.847935,29.752413 -22.091397,45.657093 -31.698553,49.812013 12.788999,0.86067 22.64183,-9.05673 22.64183,-9.05673 1.859841,-2.64892 -4.495527,6.33126 -9.05673,9.05673 8.356958,-2.34004 13.951591,-3.19043 19.225253,-7.0383 -0.002,0 4.28529,-2.33286 8.75594,-7.43222 0.59475,-0.67837 1.61656,-1.61974 2.22884,-2.39232 0.38062,-0.48025 0.73246,-0.97279 1.10448,-1.45532 0.0656,-0.0793 0.14031,-0.1547 0.20335,-0.23525 9.40953,-11.510864 13.99199,-25.82257 13.65225,-38.791694 0.066,-15.721513 -6.31475,-29.368942 -17.03347,-40.651094 C 102.79041,20.989151 93.986821,15.544814 86.05853,12.843442 75.786465,9.8937397 63.11285,8.636211 54.047132,10.35152 53.188614,10.638556 54.175679,5.6318763 55.235269,4.8785495 52.693475,5.1164911 49.938513,10.750607 47.878907,12.004679 49.569174,9.204287 48.673721,7.5249795 50.706905,4.8785495 43.148509,6.2896647 44.076643,12.595831 39.430064,17.000802 40.960922,8.8155971 44.336504,5.6191145 50.706905,0.3501832 Z"
   id="path22"
   inkscape:connector-curvature="0" />
 <path
   style="fill:#4271a3;stroke-width:2.26511979"
   d="M 29.470358,45.634745 C 44.566345,45.200248 35.087834,35.844325 55.235269,18.46455 38.821261,26.963252 23.19824,26.951479 29.489834,45.634745 h -0.01903 z"
   id="path24"
   inkscape:connector-curvature="0" />
 <path
   style="fill:#ffffff;stroke-width:2.26511979"
   d="m 38.520093,38.041552 c -1.447438,2.643778 -4.824802,3.709325 -6.693147,2.714139 -1.909391,-0.995185 -1.899125,-4.322523 -0.421052,-6.966302 1.426909,-2.643783 7.729948,-1.457595 7.760745,-1.457595 0.02987,0 0.800692,3.076026 -0.646758,5.709758 z"
   id="path26"
   inkscape:connector-curvature="0" />
 <path
   style="fill:#5c5f60;stroke-width:2.26511979"
   d="m 32.188058,50.091032 c 0,0 0.812886,-0.784457 0.389144,-2.218908 -5.067334,1.675437 -7.555588,-3.175068 -7.537908,-3.175068 0.01721,0 -3.796389,9.99442 0.755729,14.522787 0.394326,-3.729586 6.20469,-8.933723 6.222373,-8.933723"
   id="path28"
   inkscape:connector-curvature="0" />
 <circle
   style="fill:#5c5f60;stroke-width:2.26511979"
   cx="34.871681"
   cy="36.593002"
   r="2.2651198"
   id="circle30" />
 <path
   style="opacity:0.1;fill:#ffffff;stroke-width:2.26511979"
   d="M 50.705395,0.35108689 C 39.97469,0.6374864 33.950919,11.627619 29.722071,20.108948 28.19885,22.804735 26.619654,26.0038 25.289159,28.55006 c -1.321335,2.082098 -1.539855,4.38082 -1.384731,6.724573 0.115747,-1.549599 0.493152,-3.054546 1.384731,-4.459455 1.330495,-2.54626 2.909691,-5.745323 4.432912,-8.441112 3.800551,-7.62234 9.063369,-17.2447723 17.877633,-19.3287255 0.973989,-0.8704923 1.937321,-1.7278991 3.105691,-2.69425361 z m 0,4.53023971 C 43.623256,6.2035291 43.93725,11.805093 40.1894,16.131716 c -0.288102,0.96602 -0.5476,1.995983 -0.760938,3.136659 4.366037,-4.139014 3.815487,-9.9586281 10.002804,-11.8166676 0.230116,-0.7997912 0.541864,-1.617248 1.274129,-2.5703808 z m 4.53024,0 c -2.065611,0.1933733 -4.263327,3.9206323 -6.122901,5.9946024 -0.223092,1.031201 -0.445176,2.085839 -1.234312,3.393257 1.736752,-1.057493 3.968559,-5.1981853 6.149444,-6.6228211 0.285392,-1.199664 0.727675,-2.4237099 1.207769,-2.7650383 z m 6.193686,4.7204728 c -2.623518,0.077238 -5.117328,0.3232652 -7.383757,0.7520936 -0.05194,0.01744 -0.09392,0.01042 -0.132714,-0.0089 -0.255601,1.275208 -0.287155,2.41435 0.132714,2.273968 9.065716,-1.71531 21.740445,-0.458957 32.01251,2.490746 7.928292,2.701371 16.731096,8.143548 24.482766,16.30267 10.71872,11.282154 17.09873,24.931227 17.03264,40.652704 0.003,0.115748 -0.002,0.233488 0,0.349509 0.0211,-0.87642 0.0227,-1.748945 0,-2.614629 0.0661,-15.721474 -6.31392,-29.370548 -17.03264,-40.652702 C 102.78917,20.988209 93.986366,15.546031 86.058074,12.84466 78.354025,10.632383 69.299879,9.3701229 61.429321,9.6018225 Z"
   id="path32"
   inkscape:connector-curvature="0" />
<g
   id="g132"
   transform="matrix(0.6581373,0.20948272,-0.20948272,0.6581373,57.404251,60.027403)"
   style="fill:#304776;fill-opacity:1"><path
     id="path109"
     d="m 10.74084,32.483884 c 0,11.248047 -14.1726592,19.516082 -1.4172056,19.516082 H 54.675825 c 12.756053,0 -1.416006,-8.268035 -1.416006,-19.516082 0,-12.544652 -5.670024,-26.484111 -21.260089,-26.484111 -15.590066,0 -21.26009,13.939459 -21.26009,26.484111 z"
     style="fill:#304776;fill-opacity:1"
     inkscape:connector-curvature="0" /><path
     id="path111"
     d="m 22.000088,51.999966 c 1.477366,3.475015 5.373022,6.000025 10.000042,6.000025 4.627019,0 8.522635,-2.52501 10.000042,-6.000025 z"
     style="fill:#304776;fill-opacity:1"
     inkscape:connector-curvature="0" /><path
     id="path113"
     d="m 32,6.000188 c -15.60093,0 -21.272352,13.938322 -21.272352,26.484375 C 10.727647,39.412592 5.3622653,45.202987 4.2114739,48.633 4.1390163,48.51089 4.0913918,48.3778 4.055117,48.240422 3.955017,48.775234 3.9822842,49.246753 4.2114739,49.633 5.3622653,46.202987 10.727647,40.412592 10.727648,33.484563 10.727648,20.93851 16.39907,7.000188 32,7.000188 c 15.600729,0 21.272354,13.938322 21.272353,26.484375 0,6.928029 5.365382,12.718424 6.516173,16.148437 0.229024,-0.386247 0.256549,-0.857766 0.156357,-1.392578 C 59.908658,48.3778 59.860936,48.51089 59.788526,48.633 58.637735,45.202987 53.272353,39.412592 53.272353,32.484563 53.272354,19.93851 47.600729,6.000188 32,6.000188 Z"
     style="opacity:0.1;fill:#304776;fill-opacity:1"
     inkscape:connector-curvature="0" /><path
     id="path115"
     d="M 59.947616,50.240234 C 59.652602,51.373263 58.191937,52 54.696462,52 H 9.3011464 C 5.8103137,52 4.3494303,51.374576 4.0519464,50.244141 3.7235581,52.000207 4.8913583,53 9.3011464,53 H 54.696462 c 4.413231,0 5.581129,-1.001537 5.251154,-2.759766 z"
     style="opacity:0.2;fill:#304776;fill-opacity:1"
     inkscape:connector-curvature="0" /><path
     id="path117"
     d="m 22,53 c 1.478006,3.476014 5.37398,6 10,6 4.626019,0 8.521993,-2.523986 10,-6 H 41.486328 C 39.738253,55.948348 36.168198,58 32,58 27.831801,58 24.261746,55.948348 22.513672,53 Z"
     style="opacity:0.2;fill:#304776;fill-opacity:1"
     inkscape:connector-curvature="0" /></g><text
   xml:space="preserve"
   style="font-style:italic;font-variant:normal;font-weight:normal;font-stretch:normal;font-size:45.35734558px;line-height:1.25;font-family:FreeMono;-inkscape-font-specification:'FreeMono Italic';letter-spacing:0px;word-spacing:0px;opacity:1;fill:#afafe9;fill-opacity:1;stroke:none;stroke-width:0.31138617"
   x="78.569016"
   y="73.897415"
   id="text888"
   transform="rotate(17.449495)"><tspan
     sodipodi:role="line"
     id="tspan886"
     x="78.569016"
     y="73.897415"
     style="font-style:italic;font-variant:normal;font-weight:normal;font-stretch:normal;font-size:45.35734558px;font-family:FreeMono;-inkscape-font-specification:'FreeMono Italic';fill:#afafe9;fill-opacity:1;stroke-width:0.31138617">B</tspan></text>



</svg>